# xmcd
#
# Track frame offsets:
#	150
#	20749
#	33871
#	52806
#	68610
#	85589
#	104771
#	121330
#	140957
#	159843
#	177994
#	196017
#	215232
#	232268
#	250527
#	265027
#	283086
#	300170
#	318979
#	334927
#	349653
#
# Disc length: 4756 seconds
# Revision: 0
# Processed by: cddbd v1.5.2PL0 Copyright (c) Steve Scherf et al.
# Submitted via: dBpowerAMP V12.0
#
DISCID=2a129215
DTITLE=Petra Durst-Benning - Solang die Welt noch schläft 1
DYEAR=2012
DGENRE=Hörbuch
TTITLE0=01
TTITLE1=02
TTITLE2=03
TTITLE3=04
TTITLE4=05
TTITLE5=06
TTITLE6=07
TTITLE7=08
TTITLE8=09
TTITLE9=10
TTITLE10=11
TTITLE11=12
TTITLE12=13
TTITLE13=14
TTITLE14=15
TTITLE15=16
TTITLE16=17
TTITLE17=18
TTITLE18=19
TTITLE19=20
TTITLE20=21
EXTD=
EXTT0=
EXTT1=
EXTT2=
EXTT3=
EXTT4=
EXTT5=
EXTT6=
EXTT7=
EXTT8=
EXTT9=
EXTT10=
EXTT11=
EXTT12=
EXTT13=
EXTT14=
EXTT15=
EXTT16=
EXTT17=
EXTT18=
EXTT19=
EXTT20=
PLAYORDER=
